<svg viewBox="0 0 280 41" fill="none" xmlns="http://www.w3.org/2000/svg" class="ss-h-10 ss-w-32 md:ss-w-56 md:ss-h-10" role="presentation"><path d="M150.689 16.13a10.515 10.515 0 0 0-6.999-2.652h-10.208v2.682l-8.327-5.142 8.327-5.14v2.68h10.208c3.961 0 7.578 1.477 10.317 3.899v-1.555c0-5.653-4.673-10.253-10.416-10.253h-13.533c-5.325 0-9.727 3.956-10.34 9.04v1.188c0 5.679 4.693 10.3 10.462 10.3h10.208v.107-2.788l8.327 5.141-8.327 5.141v-2.681h-10.33c-.041 0-.082-.004-.122-.007a15.524 15.524 0 0 1-10.293-4.092v1.756c0 5.654 4.672 10.254 10.415 10.254h13.535c5.743 0 10.415-4.6 10.415-10.254v-.127c0-2.956-1.279-5.623-3.318-7.495l-.001-.002ZM16.869 16.058c-6.455-.894-10.5-1.235-10.5-4.472 0-2.3 1.592-4.302 8.305-4.302 6.412 0 8.693 2.3 8.951 4.472h5.422c0-4.26-3.916-8.902-14.244-8.902-9.94 0-13.77 3.919-13.77 9.115 0 4.856 3.356 7.156 10.586 8.306 8.391 1.363 13.383 1.065 13.383 4.643 0 3.194-3.529 4.557-9.123 4.557-6.498 0-10.027-1.96-10.199-5.069H0c0 5.367 4.475 9.499 15.707 9.499 10.543 0 14.803-4.004 14.803-9.626 0-5.793-5.12-7.071-13.641-8.221ZM45.993 10.115c-6.584 0-12.91 3.876-12.91 12.012 0 8.263 6.455 11.969 12.996 11.969 6.154 0 10.629-2.982 11.79-7.625h-4.647c-.774 1.619-2.668 3.748-7.143 3.748-4.82 0-7.617-2.555-8.22-6.431h20.656c.603-9.413-5.25-13.673-12.522-13.673Zm-8.004 9.84c.817-3.578 3.744-5.964 8.004-5.964 4.604 0 7.1 2.386 7.789 5.963H37.989ZM76.948 10.754c-4.776 0-7.703 2.64-8.778 4.132v-3.493h-5.294v22.703h5.294v-13.12c0-3.577 2.28-5.962 6.454-5.962 4.175 0 6.283 2.13 6.283 5.963v13.119H86.2V19.4c0-5.282-3.27-8.647-9.252-8.647ZM110.799.447v13.62c-1.807-2.172-4.561-3.62-8.391-3.62-6.713 0-11.92 4.302-11.92 12.011 0 7.667 5.207 11.97 11.92 11.97 3.83 0 6.584-1.449 8.391-3.621v2.981h5.293V.448h-5.293Zm-7.358 30.104c-5.508 0-8.047-3.322-8.047-8.093 0-4.813 2.453-8.135 8.047-8.135 5.551 0 8.176 3.407 8.176 8.135 0 4.686-2.711 8.093-8.176 8.093ZM188.793 22.004c0-7.71-5.25-11.969-12.35-11.969-3.529 0-6.197 1.023-8.004 2.94v-2.343h-10.586v29.815h10.586v-9.413c1.807 1.917 4.475 2.939 8.004 2.939 7.1 0 12.35-4.26 12.35-11.969Zm-10.199 0c0 2.896-1.635 5.282-5.422 5.282s-5.551-2.13-5.551-5.282c0-3.194 1.764-5.324 5.551-5.324s5.422 2.385 5.422 5.324ZM209.903 10.759c-5.121 0-7.445 2.428-8.391 4.089v-3.493h-10.586v22.703h10.586v-9.243c0-3.706 1.076-6.304 6.067-6.304 2.109 0 3.529.511 4.691.852h.947v-8.434c-1.033-.085-1.55-.17-3.314-.17ZM215.384 34.004h10.586V11.302h-10.586v22.702ZM247.256 10.759c-4.604 0-7.014 1.917-8.133 3.407v-2.81h-10.586v22.702h10.586V22.174c0-2.555.689-4.387 3.787-4.387 3.142 0 3.658 1.874 3.658 4.387v11.884h10.586V20.044c0-6.218-3.314-9.285-9.898-9.285ZM280 16.675V11.37h-6.713V.628h-10.586v10.743h-4.26v5.304h4.26v7.581c0 8.136 3.141 9.84 12.522 9.84 1.593 0 3.357-.17 4.777-.341v-6.773c-5.723.299-6.713.085-6.713-2.726v-7.581H280Z" fill="#16342E"></path><path d="M215.384 34.004h10.586V11.302h-10.586v22.702ZM220.722 10.488c3.185 0 5.423-1.789 5.423-4.898 0-3.152-2.238-4.94-5.423-4.94-3.184 0-5.422 1.788-5.422 4.94 0 3.11 2.238 4.898 5.422 4.898Z" fill="#16342E"></path><path d="M220.722 10.488c3.185 0 5.423-1.789 5.423-4.898 0-3.152-2.238-4.94-5.423-4.94-3.184 0-5.422 1.788-5.422 4.94 0 3.11 2.238 4.898 5.422 4.898Z" fill="#16342E"></path></svg>